<mxfile host="app.diagrams.net" modified="2023-08-26T14:17:36.357Z" agent="Mozilla/5.0 (Windows NT 10.0; Win64; x64) AppleWebKit/537.36 (KHTML, like Gecko) Chrome/116.0.0.0 Safari/537.36" version="21.6.9" etag="SIARm90Unlp6zyv3nGKj" type="github">
  <diagram name="Page-1" id="8H-8xmzPVinGmGW4ERsI">
    <mxGraphModel>
      <root>
        <mxCell id="0" />
        <mxCell id="1" parent="0" />
      </root>
    </mxGraphModel>
  </diagram>
</mxfile>
